<svg xmlns="http://www.w3.org/2000/svg" viewBox="0 0 451.11 451.11"><defs><style>.cls-1{fill:#feeb40;}.cls-2{fill:#010101;}</style></defs><title>beneficiary photo icon</title><g id="Layer_2" data-name="Layer 2"><g id="Layer_1-2" data-name="Layer 1"><path class="cls-1" d="M451.11,303.09a148,148,0,1,1-148-148A148,148,0,0,1,451.11,303.09Z"/><path class="cls-2" d="M380.62,451.11h-14.1V359.48c0-46.69-45.56-68.84-72.72-77.9a7.2,7.2,0,0,1-.92-.38L250.6,260.05c-4-1.77-25-12-25-27.45V204.41h14.1V232.6c0,4.58,10,11.61,17,14.71l42.11,21.05c52,17.49,81.88,50.68,81.88,91.11Z"/><path class="cls-2" d="M14.1,451.11H0V359.48C0,319,29.83,285.86,81.88,268.37l41.84-20.93C132,243.7,141,236.76,141,232.6V204.41h14.1V232.6c0,15.46-21.08,25.69-25.31,27.58l-42,21a7.2,7.2,0,0,1-.92.38c-27.15,9.05-72.72,31.21-72.72,77.9Z"/><rect class="cls-2" x="70.49" y="394.72" width="14.1" height="56.39"/><rect class="cls-2" x="296.04" y="394.72" width="14.1" height="56.39"/><path class="cls-2" d="M190.31,225.56c-58.43,0-84.58-60.18-84.58-119.83a7,7,0,0,1,4.19-6.44l53.44-23.75c-5.18-5.6-8.28-12-8.28-19.15h14.1c0,20.05,58.25,36.84,99.61,42.35a7.05,7.05,0,0,1,6.12,7C274.9,165.37,248.74,225.56,190.31,225.56ZM119.89,110.28c1.12,39.63,16.88,101.18,70.42,101.18,52.86,0,68.9-60,70.37-99.64-18.5-2.83-59.86-10.6-85-26.35Z"/><path class="cls-2" d="M272.83,131.86l-10-10,12-12V77.53A63.51,63.51,0,0,0,211.46,14.1H169.17a63.51,63.51,0,0,0-63.44,63.44v32.32l12,12-10,10-14.1-14.1a7,7,0,0,1-2.07-5V77.53A77.62,77.62,0,0,1,169.17,0h42.29A77.62,77.62,0,0,1,289,77.53v35.24a7.05,7.05,0,0,1-2.07,5Z"/><path class="cls-2" d="M190.31,324.24a70.57,70.57,0,0,1-70.49-70.49h14.1a56.39,56.39,0,0,0,112.78,0h14.1A70.57,70.57,0,0,1,190.31,324.24Z"/></g></g></svg>