<svg xmlns="http://www.w3.org/2000/svg" viewBox="0 0 555.93 449.11"><defs><style>.cls-1{fill:#feeb40;}.cls-2{fill:#010101;}</style></defs><title>giveassured icon</title><g id="Layer_2" data-name="Layer 2"><g id="Layer_1-2" data-name="Layer 1"><path class="cls-1" d="M555.93,301.09a148,148,0,1,1-148-148A148,148,0,0,1,555.93,301.09Z"/><path class="cls-2" d="M113.34,208.51a30.06,30.06,0,0,0-22.51-18.75l-4-127.57A26.28,26.28,0,0,0,34.7,58.39L.76,252.32a63.64,63.64,0,0,0,13,49.29L97.06,406.55v34.87a5.69,5.69,0,0,0,11.37,0V404.57a5.72,5.72,0,0,0-1.23-3.54L22.66,294.53A52.18,52.18,0,0,1,12,254.17L45.9,60.35a14.91,14.91,0,0,1,29.6,2.16l4,127.32a30.1,30.1,0,0,0-24.21,32.32C58,251.95,67.76,294,98.73,324.94a5.69,5.69,0,0,0,8-8.05C78.19,288.33,69.14,249,66.57,221.11a18.76,18.76,0,0,1,36.19-8.45c17.13,43.74,55.28,98.65,76.5,127.51,7.55,10.25,12.45,39.72-.67,53.08a5.68,5.68,0,0,0-1.63,4v44.2a5.69,5.69,0,0,0,11.37,0v-42c15.2-17.93,10.9-51.29.09-66C167.53,305,130,251,113.34,208.51Z"/><path class="cls-2" d="M501.66,252.22,467.74,58.41a26.28,26.28,0,0,0-52.17,3.75l-4,127.6a30.06,30.06,0,0,0-22.52,18.75C372.43,251.06,334.9,305,314,333.41c-10.82,14.72-15.1,48.07.1,66v42a5.69,5.69,0,0,0,11.37,0v-44.2a5.68,5.68,0,0,0-1.63-4c-13.13-13.35-8.22-42.83-.67-53.08,21.21-28.84,59.36-83.74,76.5-127.51a18.7,18.7,0,0,1,17.35-12,5,5,0,0,0,.94,0,18.76,18.76,0,0,1,17.9,20.47c-2.57,27.94-11.62,67.23-40.2,95.78a5.69,5.69,0,0,0,8,8.05c31-31,40.75-73,43.48-102.8A30.11,30.11,0,0,0,423,189.83l4-127.35a14.91,14.91,0,0,1,29.59-2.13l33.91,193.72a52.23,52.23,0,0,1-10.65,40.46L395.24,401a5.68,5.68,0,0,0-1.24,3.54v36.85a5.69,5.69,0,0,0,11.37,0V406.55l83.31-104.94A63.7,63.7,0,0,0,501.66,252.22Z"/><path class="cls-2" d="M318.05,193.23v34a5.69,5.69,0,1,0,11.37,0v-34a49.94,49.94,0,0,0-49.88-49.88h-1A42.14,42.14,0,0,0,292,114.61a5.71,5.71,0,0,0,.05-.74V92.21a22.5,22.5,0,0,1,22.48-22.48h41.16a22.5,22.5,0,0,1,22.48,22.48v21.66a5.69,5.69,0,0,0,11.37,0V92.21a33.88,33.88,0,0,0-30-33.62,28.82,28.82,0,0,0,6.16-17.83V29a29,29,0,0,0-57.95,0V40.76a28.82,28.82,0,0,0,6,17.62,33.84,33.84,0,0,0-27.21,14.8,42.19,42.19,0,0,0-73.46,0,33.87,33.87,0,0,0-24.12-14.6,28.83,28.83,0,0,0,6.16-17.83V29a29,29,0,1,0-57.94,0V40.76a28.82,28.82,0,0,0,6,17.62,33.87,33.87,0,0,0-33.08,33.83v21.66a5.69,5.69,0,0,0,11.37,0V92.21a22.5,22.5,0,0,1,22.48-22.48h41.16a22.5,22.5,0,0,1,22.48,22.48v21.66a5.71,5.71,0,0,0,.05.74A42.14,42.14,0,0,0,221,143.35h-6.06a49.94,49.94,0,0,0-49.89,49.88v34a5.69,5.69,0,1,0,11.37,0v-34a38.56,38.56,0,0,1,38.52-38.51h64.6A38.56,38.56,0,0,1,318.05,193.23ZM319.11,29a17.6,17.6,0,0,1,35.21,0V40.76a17.6,17.6,0,0,1-35.21,0ZM148.53,29a17.6,17.6,0,1,1,35.2,0V40.76a17.6,17.6,0,1,1-35.2,0Zm70.4,83.5V94a30.86,30.86,0,1,1,61.72,0v18.48a30.86,30.86,0,1,1-61.72,0Z"/></g></g></svg>