<svg xmlns="http://www.w3.org/2000/svg" viewBox="0 0 509.48 486.33"><defs><style>.cls-1{fill:#feeb40;}.cls-2{fill:#171717;}</style></defs><title>updates icon</title><g id="Layer_2" data-name="Layer 2"><g id="Layer_1-2" data-name="Layer 1"><path class="cls-1" d="M509.48,320.7a148,148,0,1,1-148-148A148,148,0,0,1,509.48,320.7Z"/><polygon class="cls-2" points="296.8 440.27 97.65 440.27 97.65 0 395.73 0 395.73 366.18 383.74 366.18 383.74 11.99 109.64 11.99 109.64 428.28 296.8 428.28 296.8 440.27"/><polygon class="cls-2" points="85.66 418.86 48.82 418.86 48.82 21.41 85.66 21.41 85.66 33.41 60.82 33.41 60.82 406.87 85.66 406.87 85.66 418.86"/><polygon class="cls-2" points="36.83 398.3 0 398.3 0 43.69 36.83 43.69 36.83 55.68 11.99 55.68 11.99 386.31 36.83 386.31 36.83 398.3"/><rect class="cls-2" x="335.09" y="456.63" width="110.52" height="11.99"/><polygon class="cls-2" points="345.1 486.33 321.4 462.63 345.1 438.93 353.58 447.41 338.36 462.63 353.58 477.85 345.1 486.33"/><rect class="cls-2" x="329.88" y="399.93" width="110.52" height="11.99"/><polygon class="cls-2" points="430.39 429.62 421.92 421.14 437.13 405.92 421.92 390.7 430.39 382.23 454.09 405.92 430.39 429.62"/><path class="cls-2" d="M348.26,143.05H262.61V57.4h85.66Zm-73.66-12h61.67V69.39H274.6Z"/><rect class="cls-2" x="159.25" y="57.4" width="77.66" height="11.99"/><rect class="cls-2" x="143.83" y="94.23" width="93.08" height="11.99"/><rect class="cls-2" x="159.25" y="131.06" width="77.66" height="11.99"/><rect class="cls-2" x="143.83" y="195.87" width="205.29" height="11.99"/><rect class="cls-2" x="180.66" y="247.26" width="168.89" height="11.99"/><rect class="cls-2" x="143.83" y="298.65" width="205.29" height="11.99"/><rect class="cls-2" x="143.83" y="350.05" width="102.93" height="11.99"/></g></g></svg>